<svg width="53" height="40" viewBox="0 0 53 40" fill="none" xmlns="http://www.w3.org/2000/svg">
<g clip-path="url(#clip0_598_15797)">
<path fill-rule="evenodd" clip-rule="evenodd" d="M0 0H53V40H0V0Z" fill="#229E45"/>
<path fill-rule="evenodd" clip-rule="evenodd" d="M26.6159 36.3332L51.5838 20.0248L26.4668 3.6665L1.41602 20.0582L26.6159 36.3332Z" fill="#F8E509"/>
<path fill-rule="evenodd" clip-rule="evenodd" d="M37.4971 20C37.4971 25.8583 32.7685 30.6083 26.9302 30.6083C24.8439 30.605 22.8054 29.9794 21.0725 28.8104C19.3395 27.6415 17.9898 25.9817 17.194 24.041C16.3983 22.1003 16.1922 19.9657 16.6018 17.9072C17.0115 15.8486 18.0184 13.9585 19.4954 12.4757C20.9724 10.993 22.853 9.98413 24.8997 9.57677C26.9464 9.16942 29.0671 9.38182 30.9938 10.1871C32.9205 10.9925 34.5667 12.3545 35.7242 14.1012C36.8818 15.8478 37.4987 17.9006 37.4971 20Z" fill="#2B49A3"/>
<path fill-rule="evenodd" clip-rule="evenodd" d="M23.4612 26.3584L23.13 26.1667L22.7987 26.3334L22.8733 25.9584L22.6083 25.675L22.9809 25.6334L23.1631 25.3L23.3205 25.65L23.6848 25.7167L23.4116 25.9667M30.5334 28.1584L30.2105 27.9667L29.8792 28.1334L29.9455 27.7584L29.6888 27.4834L30.0614 27.4417L30.2353 27.1L30.4009 27.45L30.7653 27.5167L30.4838 27.775M27.4859 25.275L27.2044 25.1084L26.9145 25.2584L26.9808 24.9334L26.7489 24.6917L27.0802 24.6584L27.2292 24.3584L27.3617 24.6667L27.6847 24.725L27.4362 24.95M34.6409 24.2417L34.3594 24.075L34.0695 24.225L34.1358 23.9L33.9122 23.6667L34.2352 23.6334L34.3842 23.3417L34.5167 23.6417L34.8314 23.7L34.5913 23.9167M27.3617 22.0834L27.0305 21.9L26.6992 22.0667L26.7655 21.6834L26.5088 21.4084L26.8814 21.3667L27.0553 21.025L27.2209 21.375L27.5853 21.4417L27.3038 21.7084M18.6416 18.7917L18.3103 18.6084L17.9791 18.775L18.0619 18.3917L17.7886 18.1167L18.1695 18.075L18.3352 17.7334L18.5008 18.0834L18.8652 18.15L18.5919 18.4084M19.6933 23.175L19.362 22.9834L19.0308 23.15L19.1053 22.775L18.8403 22.5L19.213 22.45L19.3869 22.1167L19.5525 22.4667L19.9169 22.5334L19.6436 22.7917M30.5748 17.1834L30.2767 17.0167L29.9786 17.1667L30.0448 16.8334L29.813 16.5834L30.1442 16.5417L30.3016 16.2417L30.4423 16.5584L30.7736 16.6167L30.5252 16.8417M29.9703 20.0334L29.7467 19.9L29.5066 20.0167L29.5563 19.75L29.3741 19.5584L29.6391 19.525L29.7633 19.2917L29.8709 19.5417L30.1194 19.5834L29.9372 19.7667M18.1613 23.9667L17.9377 23.8417L17.7141 23.95L17.7638 23.7L17.5898 23.5167L17.8383 23.4834L17.9542 23.2584L18.0619 23.4917L18.3103 23.5417L18.1198 23.7084M34.6989 24.9834L34.5167 24.8917L34.3345 24.975L34.3759 24.7834L34.2352 24.65L34.4339 24.625L34.5333 24.4584L34.6161 24.625L34.8231 24.6667L34.6658 24.7917" fill="#FFFFEF"/>
<path fill-rule="evenodd" clip-rule="evenodd" d="M18.1613 23.9666L17.9377 23.8416L17.7141 23.95L17.7638 23.7L17.5898 23.5166L17.8383 23.4833L17.9542 23.2583L18.0619 23.4916L18.3103 23.5416L18.1198 23.7083" fill="#FFFFEF"/>
<path fill-rule="evenodd" clip-rule="evenodd" d="M18.1613 23.9667L17.9377 23.8417L17.7141 23.95L17.7638 23.7L17.5898 23.5167L17.8383 23.4834L17.9542 23.2584L18.0619 23.4917L18.3103 23.5417L18.1198 23.7084M21.6228 23.9584L21.4075 23.8417L21.1839 23.95L21.2336 23.7L21.0597 23.5167L21.3081 23.4834L21.4241 23.2584L21.5317 23.4917L21.7802 23.5334L21.5897 23.7084M21.1922 25.125L20.9769 25L20.7533 25.1167L20.803 24.8667L20.6291 24.675L20.8775 24.6417L20.9934 24.4167L21.1011 24.65L21.3495 24.7L21.1591 24.8667M28.3969 23.0167L28.1816 22.8834L27.9497 23L27.9994 22.75L27.8338 22.5584L28.0822 22.5334L28.1981 22.3084L28.2975 22.5417L28.5459 22.5834L28.3637 22.7584M26.2852 23.0084L26.0616 22.8834L25.838 23L25.8877 22.75L25.722 22.5584L25.9705 22.5334L26.0864 22.3L26.1858 22.5417L26.4342 22.5834L26.252 22.7584M20.5545 22.275L20.4138 22.1917L20.273 22.2584L20.3061 22.1L20.1984 21.9834L20.3558 21.9667L20.422 21.825L20.4883 21.975L20.6456 22L20.5297 22.1084M34.4256 25.8917L34.2103 25.7667L33.9867 25.8834L34.0364 25.6334L33.8625 25.4417L34.1109 25.4084L34.2269 25.1834L34.3345 25.4167L34.583 25.4667L34.3925 25.6334M32.67 26.1334L32.4878 26.0167L32.2973 26.1167L32.3387 25.9L32.198 25.75L32.405 25.725L32.5044 25.5334L32.5872 25.7334L32.7942 25.7667L32.6369 25.9167M33.4981 26.1084L33.3325 26.0084L33.1586 26.0917L33.1917 25.9L33.0592 25.7584L33.2497 25.7334L33.3408 25.5667L33.4236 25.7334L33.6141 25.775L33.4733 25.9084M35.8831 24.0084L35.7175 23.925L35.5519 24.0084L35.5933 23.8167L35.4608 23.675L35.6512 23.65L35.7341 23.4834L35.8169 23.6584L35.9908 23.6917L35.8583 23.825M32.6452 27.3084L32.4381 27.1917L32.2145 27.2917L32.2642 27.0584L32.0986 26.8917L32.347 26.8667L32.4547 26.6584L32.5541 26.875L32.8025 26.9167L32.612 27.075M32.6617 28.2584L32.463 28.1417L32.2642 28.25L32.3139 28.0167L32.1566 27.85L32.3802 27.8167L32.4795 27.6084L32.5706 27.825L32.7942 27.8667L32.6286 28.0334M31.0552 26.1084L30.8978 26.0084L30.7322 26.0917L30.7653 25.9084L30.6411 25.7667L30.8233 25.75L30.9061 25.5834L30.9889 25.75L31.1711 25.7834L31.0386 25.9167M29.5645 26.1084L29.3989 26.0084L29.2333 26.0917L29.2747 25.9084L29.1422 25.7667L29.3327 25.75L29.4155 25.5834L29.4983 25.75L29.6722 25.7834L29.5397 25.9167M27.0222 23.8667L26.8566 23.775L26.6909 23.8584L26.7323 23.6667L26.5998 23.5334L26.782 23.5084L26.8648 23.3417L26.9477 23.5084L27.1298 23.55L26.9973 23.675M27.3038 28.425L27.1713 28.35L27.0222 28.425L27.0553 28.2584L26.9477 28.1417L27.105 28.125L27.1795 27.9834L27.2458 28.1334L27.4031 28.1584L27.2872 28.2667M23.4612 21.05L23.13 20.8584L22.7987 21.025L22.8733 20.65L22.6083 20.375L22.9809 20.325L23.1631 19.9917L23.3205 20.3417L23.6848 20.4084L23.4116 20.6667" fill="#FFFFEF"/>
<path fill-rule="evenodd" clip-rule="evenodd" d="M36.8015 23.8168C37.0066 23.2812 37.1673 22.7293 37.2818 22.1668C31.6671 17.2085 25.4148 14.6668 17.5145 15.1918C17.2279 15.7498 16.9923 16.3327 16.8105 16.9335C26.1684 16.0335 33.0418 20.2002 36.8015 23.8168Z" fill="white"/>
<path d="M34.285 21.0333L34.4755 21.1417C34.447 21.1983 34.4383 21.2628 34.4506 21.325C34.47 21.3853 34.5115 21.4359 34.5666 21.4667C34.6245 21.5083 34.6825 21.5333 34.7322 21.525C34.7819 21.525 34.815 21.5 34.8398 21.4667C34.8543 21.4445 34.8602 21.4179 34.8564 21.3917C34.8496 21.3609 34.8354 21.3323 34.815 21.3083C34.7984 21.2833 34.757 21.225 34.6908 21.1583C34.6227 21.0876 34.5717 21.0021 34.5417 20.9083C34.5211 20.8374 34.5264 20.7613 34.5568 20.694C34.5872 20.6267 34.6406 20.5727 34.7073 20.5417C34.7676 20.5164 34.8341 20.5105 34.8978 20.525C34.9757 20.543 35.049 20.5771 35.1131 20.625C35.2291 20.7083 35.3036 20.7917 35.3284 20.8917C35.3399 20.9384 35.3414 20.9871 35.3328 21.0345C35.3243 21.0819 35.3058 21.1269 35.2787 21.1667L35.08 21.0417C35.1048 20.9917 35.1131 20.9417 35.0966 20.9C35.0883 20.8583 35.0552 20.8167 34.9972 20.7833C34.9547 20.7489 34.9026 20.7285 34.8481 20.725C34.8331 20.7245 34.8182 20.7281 34.8051 20.7354C34.792 20.7428 34.7811 20.7536 34.7736 20.7667C34.757 20.7917 34.757 20.8167 34.7653 20.85C34.7736 20.8833 34.815 20.95 34.8978 21.0333C34.9806 21.1167 35.0303 21.1917 35.0634 21.2417C35.093 21.2963 35.1064 21.3583 35.102 21.4203C35.0976 21.4824 35.0756 21.5418 35.0386 21.5917C34.9998 21.6483 34.945 21.6919 34.8812 21.7167C34.8191 21.7454 34.7497 21.7542 34.6825 21.7417C34.608 21.725 34.5334 21.6917 34.4506 21.6333C34.3264 21.55 34.2519 21.4583 34.227 21.3583C34.2001 21.2449 34.2179 21.1254 34.2767 21.025L34.285 21.0333ZM33.3244 20.4L33.5314 20.5083C33.5058 20.5659 33.4999 20.6304 33.5148 20.6917C33.536 20.7489 33.5773 20.7963 33.6308 20.825C33.697 20.8667 33.7467 20.8833 33.7964 20.875C33.8461 20.875 33.8792 20.85 33.9041 20.8083C33.9166 20.7885 33.9224 20.7651 33.9206 20.7417C33.9206 20.7167 33.9041 20.6833 33.8792 20.6583C33.8368 20.6068 33.7926 20.5568 33.7467 20.5083C33.6556 20.4167 33.5977 20.3417 33.5811 20.275C33.5675 20.2321 33.5635 20.1868 33.5692 20.1421C33.5749 20.0975 33.5903 20.0547 33.6142 20.0167C33.6457 19.9652 33.6919 19.9246 33.7467 19.9C33.8036 19.8736 33.8671 19.8649 33.9289 19.875C34.0055 19.888 34.0787 19.9163 34.1442 19.9583C34.2684 20.0417 34.343 20.125 34.3678 20.2167C34.3829 20.2635 34.3878 20.3131 34.382 20.362C34.3763 20.4109 34.3602 20.458 34.3347 20.5L34.1277 20.3833C34.1525 20.325 34.1608 20.2833 34.1442 20.2417C34.1277 20.2 34.0945 20.1583 34.0366 20.125C33.9907 20.0919 33.9356 20.0744 33.8792 20.075C33.8656 20.0759 33.8525 20.0802 33.8409 20.0875C33.8293 20.0947 33.8197 20.1048 33.813 20.1167C33.7964 20.1417 33.7964 20.1667 33.8047 20.2C33.813 20.2333 33.8627 20.3 33.9455 20.3833C34.0283 20.4667 34.0862 20.5333 34.1111 20.5833C34.1443 20.6356 34.1619 20.6963 34.1619 20.7583C34.1619 20.8204 34.1443 20.8811 34.1111 20.9333C34.0754 20.9915 34.0236 21.0378 33.962 21.0667C33.8999 21.0954 33.8305 21.1042 33.7633 21.0917C33.6781 21.0772 33.5965 21.046 33.5231 21C33.4161 20.9426 33.3336 20.8477 33.2912 20.7333C33.2592 20.6221 33.2711 20.5027 33.3244 20.4ZM32.1484 20.0833L32.753 19.0833L33.4817 19.5417L33.3823 19.7083L32.8523 19.375L32.7198 19.6L33.2167 19.9083L33.1091 20.075L32.6122 19.7667L32.4466 20.0417L33.0014 20.375L32.902 20.5417L32.1567 20.0833H32.1484ZM30.4342 18.6667L30.5253 18.5L30.9725 18.725L30.7655 19.1417C30.6992 19.1583 30.6164 19.1667 30.517 19.1583C30.4216 19.1477 30.329 19.1195 30.2437 19.075C30.1435 19.0259 30.0579 18.9512 29.9953 18.8583C29.9384 18.7721 29.9094 18.6702 29.9125 18.5667C29.9167 18.4589 29.945 18.3535 29.9953 18.2583C30.0451 18.1581 30.1191 18.0721 30.2106 18.0083C30.2982 17.9474 30.4023 17.9154 30.5087 17.9167C30.5916 17.9167 30.6744 17.9417 30.7737 18C30.9062 18.0583 30.9891 18.1417 31.0305 18.2333C31.0735 18.3243 31.0824 18.428 31.0553 18.525L30.8317 18.4583C30.8454 18.4025 30.8396 18.3437 30.8152 18.2917C30.7903 18.2417 30.7489 18.2083 30.6827 18.175C30.644 18.1528 30.6012 18.1391 30.557 18.1348C30.5127 18.1305 30.4681 18.1357 30.4259 18.15C30.3431 18.175 30.2686 18.25 30.2106 18.3667C30.1527 18.4833 30.1278 18.5917 30.1527 18.6833C30.1641 18.7268 30.1848 18.7672 30.2135 18.8018C30.2421 18.8363 30.2778 18.8642 30.3183 18.8833C30.3597 18.9083 30.4094 18.925 30.4591 18.925C30.5085 18.9325 30.5587 18.9325 30.6081 18.925L30.6744 18.7917L30.4342 18.6667ZM22.9645 16.8083L23.1302 15.6417L23.478 15.7L23.5691 16.5167L23.892 15.7667L24.2398 15.8167L24.0742 16.9667L23.8506 16.9333L23.9914 16.025L23.627 16.9L23.4034 16.8667L23.3123 15.925L23.1798 16.8417L22.9645 16.8083ZM21.7969 16.6667L21.9045 15.5L22.7575 15.5833L22.7409 15.7833L22.1198 15.725L22.095 15.975L22.6747 16.0333L22.6498 16.2333L22.0702 16.175L22.0453 16.4917L22.6912 16.55L22.6747 16.75L21.7969 16.6667Z" fill="#309E3A"/>
<path d="M17.9297 15.9418C17.9297 15.8168 17.9545 15.7251 17.9877 15.6418C18.0167 15.5825 18.056 15.5289 18.1036 15.4835C18.1461 15.4404 18.1968 15.4063 18.2527 15.3835C18.3355 15.3585 18.4183 15.3418 18.5011 15.3418C18.675 15.3418 18.8075 15.4085 18.9152 15.5085C18.9664 15.5722 19.0045 15.6455 19.0273 15.7242C19.05 15.8029 19.057 15.8854 19.0477 15.9668C19.0477 16.1501 18.9897 16.3001 18.882 16.4085C18.8267 16.4599 18.7613 16.4991 18.69 16.5235C18.6186 16.5479 18.543 16.557 18.468 16.5501C18.394 16.5509 18.3206 16.5365 18.2522 16.5079C18.1839 16.4792 18.1221 16.4369 18.0705 16.3835C17.9674 16.2607 17.9168 16.102 17.9297 15.9418Z" fill="#309E3A"/>
<path d="M18.1699 15.9417C18.1699 16.0667 18.1948 16.1667 18.2527 16.2417C18.3107 16.3083 18.3852 16.35 18.4846 16.35C18.5276 16.353 18.5707 16.3464 18.6108 16.3305C18.6509 16.3146 18.687 16.29 18.7165 16.2583C18.7745 16.1917 18.7993 16.0917 18.8076 15.95C18.8076 15.8167 18.791 15.7167 18.7248 15.65C18.6978 15.6164 18.6637 15.5893 18.6251 15.5705C18.5864 15.5518 18.5441 15.5419 18.5012 15.5417C18.4576 15.5403 18.4143 15.5485 18.3742 15.5658C18.3341 15.583 18.2983 15.6089 18.2693 15.6417C18.203 15.7083 18.1782 15.8083 18.1699 15.9417Z" fill="#F7FFFF"/>
<path d="M19.2949 16.5417L19.3115 15.375H19.8084C19.9326 15.375 20.0154 15.3917 20.0734 15.4167C20.1313 15.4333 20.1727 15.475 20.2059 15.525C20.239 15.575 20.2555 15.6417 20.2555 15.7167C20.2562 15.7968 20.2266 15.8743 20.1727 15.9333C20.1115 15.991 20.0327 16.0263 19.9491 16.0333L20.0734 16.1333C20.1065 16.1667 20.1479 16.2333 20.1976 16.325L20.3384 16.5583H20.0568L19.8912 16.2917L19.7752 16.125C19.7552 16.1021 19.7295 16.0848 19.7007 16.075C19.663 16.0639 19.624 16.0583 19.5848 16.0583H19.5351V16.5417H19.2949Z" fill="#309E3A"/>
<path d="M19.543 15.8752H19.7086C19.8245 15.8752 19.8991 15.8752 19.9239 15.8585C19.9488 15.8585 19.9736 15.8335 19.9902 15.8169C20.0067 15.8002 20.015 15.7585 20.015 15.7335C20.015 15.6835 20.0067 15.6502 19.9819 15.6335C19.9653 15.6085 19.9322 15.5919 19.8991 15.5835H19.7334L19.543 15.5752V15.8669V15.8752Z" fill="white"/>
<path d="M20.6205 15.4331L21.0511 15.4581C21.1422 15.4581 21.2167 15.4664 21.2664 15.4831C21.3309 15.5066 21.388 15.5469 21.432 15.5998C21.4797 15.658 21.5137 15.7264 21.5314 15.7998C21.5562 15.8748 21.5645 15.9664 21.5562 16.0748C21.5562 16.1598 21.5422 16.2443 21.5148 16.3248C21.4817 16.4081 21.432 16.4748 21.3741 16.5248C21.3258 16.5648 21.2692 16.5933 21.2084 16.6081C21.1588 16.6248 21.0842 16.6248 21.0014 16.6248L20.5625 16.5998L20.6205 15.4331Z" fill="#309E3A"/>
<path d="M20.8441 15.6416L20.8027 16.4166H21.1174C21.1588 16.4166 21.192 16.3999 21.2168 16.3749C21.2416 16.3499 21.2665 16.3166 21.283 16.2666C21.2996 16.2166 21.3162 16.1416 21.3162 16.0499L21.3079 15.8416C21.2961 15.7977 21.2733 15.7575 21.2416 15.7249C21.2141 15.6971 21.1799 15.677 21.1423 15.6666C21.0796 15.6526 21.0159 15.6442 20.9518 15.6416H20.8441Z" fill="white"/>
<path d="M26.3008 17.5166L26.5741 16.3833L26.9384 16.4666L27.2034 16.55C27.2614 16.5833 27.3111 16.6333 27.3359 16.7083C27.3691 16.775 27.3691 16.85 27.3525 16.9416C27.3359 17.0083 27.3111 17.0666 27.2697 17.1083C27.2393 17.1449 27.2013 17.1743 27.1584 17.1945C27.1154 17.2146 27.0686 17.225 27.0212 17.225C26.9633 17.225 26.8805 17.2083 26.7728 17.1833L26.632 17.1416L26.5327 17.575L26.3008 17.5166Z" fill="#309E3A"/>
<path d="M26.7479 16.6333L26.6816 16.95L26.8059 16.9833C26.8887 17 26.9549 17.0166 26.988 17.0083C27.0203 17.0038 27.0503 16.9894 27.074 16.967C27.0978 16.9446 27.114 16.9154 27.1205 16.8833C27.1205 16.8416 27.1205 16.8083 27.104 16.775C27.0858 16.7411 27.0566 16.7146 27.0212 16.7L26.8638 16.6583L26.7562 16.6333H26.7479Z" fill="white"/>
<path d="M27.377 17.8417L27.7662 16.7417L28.2216 16.9084C28.3459 16.95 28.4204 16.9917 28.4701 17.025C28.5115 17.0667 28.5446 17.1084 28.5529 17.175C28.5612 17.2417 28.5695 17.3 28.5529 17.3667C28.5198 17.45 28.4701 17.5084 28.4038 17.55C28.3376 17.5834 28.2548 17.5917 28.1554 17.575C28.1885 17.6167 28.2216 17.6584 28.2382 17.7084L28.3045 17.9334L28.3541 18.1917L28.0974 18.1L28.0146 17.8C27.9996 17.7322 27.9802 17.6654 27.9566 17.6C27.9457 17.5741 27.9286 17.5512 27.907 17.5334C27.8904 17.5084 27.8573 17.4917 27.7993 17.475L27.7579 17.4584L27.5923 17.925L27.377 17.8417Z" fill="#309E3A"/>
<path d="M27.8247 17.2833L27.982 17.3416C28.0897 17.3833 28.1559 17.4 28.1891 17.4C28.2139 17.4 28.2387 17.4 28.2636 17.375C28.2884 17.3583 28.305 17.3333 28.3133 17.3C28.3298 17.2666 28.3298 17.2333 28.3133 17.2C28.301 17.1677 28.2775 17.141 28.247 17.125L28.0814 17.0666L27.9158 17.0083L27.8164 17.2833H27.8247Z" fill="white"/>
<path d="M28.7356 17.8001C28.7641 17.7025 28.812 17.6118 28.8764 17.5334C28.9183 17.4832 28.9688 17.4408 29.0255 17.4084C29.0768 17.3793 29.1329 17.3595 29.1911 17.3501C29.2739 17.3501 29.3567 17.3501 29.4478 17.3834C29.5218 17.4019 29.5911 17.4359 29.6511 17.4833C29.7111 17.5307 29.7603 17.5904 29.7956 17.6584C29.8619 17.7918 29.8619 17.9501 29.8122 18.1334C29.7712 18.2909 29.67 18.4257 29.5306 18.5084C29.4064 18.5834 29.2574 18.5918 29.1 18.5418C29.0262 18.5228 28.9571 18.4886 28.8972 18.4413C28.8373 18.3939 28.7879 18.3345 28.7522 18.2668C28.719 18.1939 28.7005 18.1152 28.6977 18.0351C28.6948 17.955 28.7077 17.8751 28.7356 17.8001Z" fill="#309E3A"/>
<path d="M28.9675 17.8667C28.9344 17.9917 28.9261 18.1 28.9675 18.1833C29.0089 18.2667 29.0669 18.3167 29.158 18.35C29.2408 18.375 29.3236 18.3667 29.4064 18.3167C29.4892 18.275 29.5389 18.1833 29.5803 18.05C29.6217 17.925 29.6217 17.825 29.5803 17.7417C29.564 17.7021 29.5392 17.6667 29.5077 17.6379C29.4762 17.6091 29.4388 17.5876 29.3981 17.575C29.3574 17.5609 29.3141 17.5558 29.2712 17.5601C29.2283 17.5644 29.1868 17.578 29.1497 17.6C29.0669 17.65 29.0089 17.7333 28.9675 17.8667Z" fill="white"/>
<path d="M30.9961 19.4249L31.5261 18.3916L31.965 18.6166C32.0477 18.6565 32.1233 18.7101 32.1886 18.7749C32.23 18.8166 32.2548 18.8666 32.2548 18.9333C32.2548 18.9999 32.2548 19.0583 32.2217 19.1166C32.1899 19.1915 32.1306 19.2512 32.0561 19.2833C31.9733 19.2999 31.8905 19.2999 31.7994 19.2666C31.8325 19.3166 31.8491 19.3666 31.8656 19.4083C31.8822 19.4583 31.8905 19.5333 31.8988 19.6416L31.9153 19.9083L31.6669 19.7833L31.6338 19.4749C31.6298 19.405 31.6215 19.3355 31.6089 19.2666C31.6033 19.2354 31.5889 19.2065 31.5675 19.1833L31.4681 19.1249L31.4267 19.0999L31.2031 19.5333L30.9961 19.4249Z" fill="#309E3A"/>
<path d="M31.5098 18.9332L31.6671 19.0165C31.7665 19.0665 31.8327 19.0998 31.8576 19.0998C31.8824 19.0998 31.9155 19.0998 31.9404 19.0832C31.9652 19.0748 31.9818 19.0498 31.9984 19.0165C32.0149 18.9832 32.0232 18.9498 32.0149 18.9165C32.0047 18.8833 31.9844 18.8542 31.957 18.8332C31.9085 18.8032 31.8588 18.7754 31.8079 18.7498L31.6423 18.6665L31.5098 18.9332Z" fill="white"/>
<path d="M35.287 21.5583C35.3406 21.4726 35.4111 21.3988 35.4941 21.3416C35.5498 21.3057 35.6115 21.2803 35.6763 21.2666C35.7364 21.2542 35.7983 21.2542 35.8584 21.2666C35.9413 21.2833 36.0158 21.3166 36.0903 21.3666C36.1548 21.407 36.2102 21.4605 36.2529 21.5236C36.2957 21.5867 36.3249 21.6581 36.3388 21.7333C36.3636 21.8749 36.3222 22.0333 36.2228 22.1916C36.1397 22.3293 36.0057 22.4282 35.8502 22.4666C35.776 22.4827 35.6993 22.4829 35.6251 22.4671C35.5509 22.4513 35.4809 22.4199 35.4195 22.3749C35.3551 22.3345 35.2997 22.281 35.2569 22.2179C35.2142 22.1548 35.1849 22.0834 35.1711 22.0083C35.1463 21.8583 35.1877 21.7083 35.287 21.5583Z" fill="#309E3A"/>
<path d="M35.4944 21.6918C35.4116 21.8001 35.3867 21.9001 35.4033 21.9918C35.4094 22.034 35.4244 22.0744 35.4472 22.1104C35.4701 22.1463 35.5002 22.1769 35.5358 22.2001C35.6186 22.2585 35.7014 22.2751 35.7842 22.2501C35.867 22.2251 35.9498 22.1668 36.0244 22.0501C36.0989 21.9335 36.132 21.8335 36.1155 21.7501C36.1072 21.6668 36.0575 21.5918 35.983 21.5335C35.9084 21.4751 35.8173 21.4668 35.7345 21.4918C35.6517 21.5085 35.5689 21.5751 35.4861 21.6918H35.4944Z" fill="white"/>
<path d="M24.9922 17.0418L25.1827 16.2251L25.7789 16.3668L25.7541 16.5001L25.3152 16.4001L25.2738 16.5834L25.6795 16.6751L25.6464 16.8168L25.2406 16.7168L25.1909 16.9418L25.6464 17.0501L25.6133 17.1834L24.9922 17.0418Z" fill="#309E3A"/>
</g>
<defs>
<clipPath id="clip0_598_15797">
<rect width="53" height="40" fill="white"/>
</clipPath>
</defs>
</svg>
