<svg width="50" height="50" viewBox="0 0 50 50" fill="none" xmlns="http://www.w3.org/2000/svg">
<g clip-path="url(#clip0_372_12766)">
<path d="M10.416 43.75C13.8678 43.75 16.666 40.9518 16.666 37.5C16.666 34.0482 13.8678 31.25 10.416 31.25C6.96424 31.25 4.16602 34.0482 4.16602 37.5C4.16602 40.9518 6.96424 43.75 10.416 43.75Z" stroke="#111213" stroke-width="1.90972" stroke-linecap="round" stroke-linejoin="round"/>
<path d="M39.584 43.75C43.0358 43.75 45.834 40.9518 45.834 37.5C45.834 34.0482 43.0358 31.25 39.584 31.25C36.1322 31.25 33.334 34.0482 33.334 37.5C33.334 40.9518 36.1322 43.75 39.584 43.75Z" stroke="#111213" stroke-width="1.90972" stroke-linecap="round" stroke-linejoin="round"/>
<path d="M25 39.5832V31.2498L18.75 24.9998L29.1667 16.6665L33.3333 22.9165H39.5833" stroke="#111213" stroke-width="1.90972" stroke-linecap="round" stroke-linejoin="round"/>
<path d="M35.4173 12.5002C36.5679 12.5002 37.5007 11.5674 37.5007 10.4168C37.5007 9.26624 36.5679 8.3335 35.4173 8.3335C34.2667 8.3335 33.334 9.26624 33.334 10.4168C33.334 11.5674 34.2667 12.5002 35.4173 12.5002Z" stroke="#111213" stroke-width="1.90972" stroke-linecap="round" stroke-linejoin="round"/>
</g>
<defs>
<clipPath id="clip0_372_12766">
<rect width="50" height="50" fill="white"/>
</clipPath>
</defs>
</svg>
