<svg width="371" height="205" viewBox="0 0 371 205" fill="none" xmlns="http://www.w3.org/2000/svg">
<path d="M4.8 191V172.088H0.192V166.664H6.864L4.8 168.536V165.032C4.8 161.864 5.616 159.48 7.248 157.88C8.912 156.28 11.392 155.48 14.688 155.48C15.424 155.48 16.208 155.528 17.04 155.624C17.904 155.72 18.656 155.912 19.296 156.2V161.768C18.848 161.608 18.336 161.496 17.76 161.432C17.184 161.336 16.624 161.288 16.08 161.288C15.344 161.288 14.656 161.416 14.016 161.672C13.408 161.928 12.912 162.36 12.528 162.968C12.176 163.544 12 164.328 12 165.32V167.864L10.992 166.664H18.144V172.088H12.048V191H4.8ZM32.4491 191.528C29.8571 191.528 27.6011 191.016 25.6811 189.992C23.7931 188.936 22.3211 187.464 21.2651 185.576C20.2411 183.688 19.7291 181.432 19.7291 178.808C19.7291 176.216 20.2411 173.976 21.2651 172.088C22.3211 170.2 23.7931 168.744 25.6811 167.72C27.6011 166.696 29.8571 166.184 32.4491 166.184C35.0411 166.184 37.2971 166.696 39.2171 167.72C41.1371 168.744 42.6091 170.2 43.6331 172.088C44.6891 173.976 45.2171 176.216 45.2171 178.808C45.2171 181.432 44.6891 183.688 43.6331 185.576C42.6091 187.464 41.1371 188.936 39.2171 189.992C37.2971 191.016 35.0411 191.528 32.4491 191.528ZM32.4491 186.056C34.1131 186.056 35.4251 185.464 36.3851 184.28C37.3771 183.096 37.8731 181.272 37.8731 178.808C37.8731 176.344 37.3771 174.536 36.3851 173.384C35.4251 172.232 34.1131 171.656 32.4491 171.656C30.7851 171.656 29.4571 172.232 28.4651 173.384C27.5051 174.536 27.0251 176.344 27.0251 178.808C27.0251 181.272 27.5051 183.096 28.4651 184.28C29.4571 185.464 30.7851 186.056 32.4491 186.056ZM49.8499 191V173.096C49.8499 172.04 49.8179 170.968 49.7539 169.88C49.7219 168.792 49.6419 167.72 49.5139 166.664H56.4739L57.2899 173.768H56.1859C56.5059 172.04 57.0179 170.616 57.7219 169.496C58.4579 168.376 59.3539 167.544 60.4099 167C61.4979 166.456 62.7299 166.184 64.1059 166.184C64.7139 166.184 65.1939 166.216 65.5459 166.28C65.8979 166.312 66.2499 166.392 66.6019 166.52L66.5539 172.904C65.8819 172.616 65.3059 172.44 64.8259 172.376C64.3779 172.28 63.8019 172.232 63.0979 172.232C61.7539 172.232 60.6339 172.488 59.7379 173C58.8739 173.512 58.2179 174.264 57.7699 175.256C57.3539 176.248 57.1459 177.448 57.1459 178.856V191H49.8499Z" fill="white"/>
<path d="M93.2771 193L98.6531 159.16H103.309L118.765 184.888L117.661 184.552L121.693 159.16H127.453L122.077 193H117.421L101.965 167.272L103.069 167.608L99.0371 193H93.2771ZM129.512 193L134.888 159.16H157.208L156.392 164.008H140.264L138.776 173.608H153.8L153.031 178.456H138.008L135.704 193H129.512ZM165.323 193L169.883 164.248H158.699L159.515 159.16H188.075L187.259 164.248H176.075L171.515 193H165.323ZM191.916 193.48C189.932 193.48 188.092 193.256 186.396 192.808C184.732 192.328 183.388 191.688 182.364 190.888L184.14 186.856C185.26 187.56 186.508 188.136 187.884 188.584C189.292 189 190.732 189.208 192.204 189.208C193.772 189.208 194.988 188.952 195.852 188.44C196.748 187.896 197.26 187.176 197.388 186.28C197.516 185.48 197.356 184.84 196.908 184.36C196.46 183.848 195.708 183.512 194.652 183.352L190.764 182.728C188.428 182.344 186.78 181.512 185.82 180.232C184.892 178.952 184.572 177.352 184.86 175.432C185.116 173.896 185.724 172.6 186.684 171.544C187.676 170.488 188.924 169.688 190.428 169.144C191.964 168.568 193.66 168.28 195.516 168.28C197.308 168.28 198.956 168.504 200.46 168.952C201.964 169.368 203.196 169.96 204.156 170.728L202.236 174.664C201.372 174.024 200.332 173.512 199.116 173.128C197.932 172.712 196.732 172.504 195.516 172.504C193.916 172.504 192.684 172.792 191.82 173.368C190.956 173.944 190.444 174.68 190.284 175.576C190.156 176.344 190.284 177 190.668 177.544C191.052 178.056 191.74 178.392 192.732 178.552L196.716 179.224C199.116 179.608 200.796 180.408 201.756 181.624C202.748 182.808 203.084 184.36 202.764 186.28C202.54 187.816 201.932 189.128 200.94 190.216C199.948 191.272 198.684 192.088 197.148 192.664C195.612 193.208 193.868 193.48 191.916 193.48Z" fill="#FECE00"/>
<line x1="75" y1="201" x2="222" y2="201" stroke="white" stroke-width="8"/>
<path d="M238.16 182.296V180.04C238.16 178.632 238.432 177.336 238.976 176.152C239.52 174.936 240.448 173.656 241.76 172.312C242.688 171.352 243.344 170.504 243.728 169.768C244.112 169 244.304 168.264 244.304 167.56C244.304 166.632 243.952 165.912 243.248 165.4C242.544 164.888 241.568 164.632 240.32 164.632C239.072 164.632 237.808 164.84 236.528 165.256C235.28 165.672 234.112 166.216 233.024 166.888V160.792C234.176 160.12 235.504 159.592 237.008 159.208C238.544 158.824 240.032 158.632 241.472 158.632C243.392 158.632 245.12 158.92 246.656 159.496C248.224 160.04 249.44 160.888 250.304 162.04C251.2 163.192 251.648 164.696 251.648 166.552C251.648 167.608 251.456 168.632 251.072 169.624C250.688 170.616 250.144 171.544 249.44 172.408C248.768 173.272 247.968 174.088 247.04 174.856C245.472 176.136 244.384 177.24 243.776 178.168C243.2 179.064 242.848 179.96 242.72 180.856L242.528 182.296H238.16ZM236.432 193V185.32H244.256V193H236.432Z" fill="white"/>
<path d="M12.96 71L0.96 37.16H8.688L17.28 63.272H15.216L24.576 37.16H30.048L38.64 63.272H36.72L45.84 37.16H53.088L40.992 71H34.896L26.592 46.952H27.696L19.104 71H12.96ZM57.0229 71V35.672H64.2709V51.224H63.5509C64.3189 49.592 65.4549 48.344 66.9589 47.48C68.4629 46.616 70.1909 46.184 72.1429 46.184C74.9909 46.184 77.1189 47.016 78.5269 48.68C79.9349 50.312 80.6389 52.824 80.6389 56.216V71H73.3909V56.552C73.3909 54.856 73.0709 53.64 72.4309 52.904C71.8229 52.168 70.8629 51.8 69.5509 51.8C67.9509 51.8 66.6709 52.296 65.7109 53.288C64.7509 54.28 64.2709 55.608 64.2709 57.272V71H57.0229ZM95.9164 71.528C93.8044 71.528 91.9484 71.016 90.3484 69.992C88.7484 68.968 87.5004 67.512 86.6044 65.624C85.7084 63.736 85.2604 61.464 85.2604 58.808C85.2604 56.184 85.7084 53.928 86.6044 52.04C87.5004 50.152 88.7484 48.712 90.3484 47.72C91.9484 46.696 93.8044 46.184 95.9164 46.184C97.8684 46.184 99.6124 46.664 101.148 47.624C102.716 48.552 103.74 49.816 104.22 51.416H103.692L104.268 46.664H111.228C111.132 47.72 111.036 48.792 110.94 49.88C110.876 50.936 110.844 51.976 110.844 53V71H103.644L103.596 66.44H104.172C103.66 67.976 102.636 69.208 101.1 70.136C99.5644 71.064 97.8364 71.528 95.9164 71.528ZM98.1244 66.056C99.7884 66.056 101.132 65.464 102.156 64.28C103.18 63.096 103.692 61.272 103.692 58.808C103.692 56.344 103.18 54.536 102.156 53.384C101.132 52.232 99.7884 51.656 98.1244 51.656C96.4604 51.656 95.1164 52.232 94.0924 53.384C93.0684 54.536 92.5564 56.344 92.5564 58.808C92.5564 61.272 93.0524 63.096 94.0444 64.28C95.0684 65.464 96.4284 66.056 98.1244 66.056ZM128.165 71.528C124.997 71.528 122.613 70.744 121.013 69.176C119.413 67.576 118.613 65.192 118.613 62.024V52.088H114.005V46.664H118.613V40.712L125.861 38.936V46.664H132.101V52.088H125.861V61.64C125.861 63.176 126.181 64.232 126.821 64.808C127.461 65.384 128.277 65.672 129.269 65.672C129.877 65.672 130.373 65.64 130.757 65.576C131.173 65.48 131.605 65.352 132.053 65.192V70.808C131.445 71.064 130.805 71.24 130.133 71.336C129.461 71.464 128.805 71.528 128.165 71.528ZM138.84 51.752L136.008 49.496C137.128 48.344 137.912 47.272 138.36 46.28C138.84 45.288 139.08 44.232 139.08 43.112L140.76 44.84H135.336V37.16H143.16V42.104C143.16 43.928 142.84 45.592 142.2 47.096C141.56 48.6 140.44 50.152 138.84 51.752ZM156.093 71.528C153.917 71.528 151.933 71.288 150.141 70.808C148.349 70.328 146.829 69.656 145.581 68.792L147.453 63.992C148.701 64.76 150.077 65.368 151.581 65.816C153.117 66.264 154.637 66.488 156.141 66.488C157.549 66.488 158.589 66.264 159.261 65.816C159.933 65.368 160.269 64.76 160.269 63.992C160.269 63.352 160.045 62.856 159.597 62.504C159.181 62.152 158.525 61.896 157.629 61.736L152.685 60.824C150.605 60.408 149.021 59.64 147.933 58.52C146.845 57.4 146.301 55.944 146.301 54.152C146.301 52.584 146.717 51.208 147.549 50.024C148.413 48.808 149.645 47.864 151.245 47.192C152.845 46.52 154.717 46.184 156.861 46.184C158.685 46.184 160.413 46.408 162.045 46.856C163.677 47.304 165.069 47.992 166.221 48.92L164.253 53.576C163.261 52.84 162.109 52.248 160.797 51.8C159.517 51.352 158.285 51.128 157.101 51.128C155.565 51.128 154.461 51.384 153.789 51.896C153.117 52.376 152.781 53 152.781 53.768C152.781 54.344 152.973 54.824 153.357 55.208C153.773 55.592 154.397 55.88 155.229 56.072L160.221 56.984C162.365 57.368 163.997 58.088 165.117 59.144C166.237 60.2 166.797 61.656 166.797 63.512C166.797 65.208 166.349 66.648 165.453 67.832C164.557 69.016 163.293 69.928 161.661 70.568C160.061 71.208 158.205 71.528 156.093 71.528Z" fill="white"/>
<path d="M70.352 131.528C67.184 131.528 64.8 130.744 63.2 129.176C61.6 127.576 60.8 125.192 60.8 122.024V112.088H56.192V106.664H60.8V100.712L68.048 98.936V106.664H74.288V112.088H68.048V121.64C68.048 123.176 68.368 124.232 69.008 124.808C69.648 125.384 70.464 125.672 71.456 125.672C72.064 125.672 72.56 125.64 72.944 125.576C73.36 125.48 73.792 125.352 74.24 125.192V130.808C73.632 131.064 72.992 131.24 72.32 131.336C71.648 131.464 70.992 131.528 70.352 131.528ZM78.0073 131V95.672H85.2553V111.224H84.5353C85.3033 109.592 86.4393 108.344 87.9433 107.48C89.4473 106.616 91.1753 106.184 93.1273 106.184C95.9753 106.184 98.1033 107.016 99.5113 108.68C100.919 110.312 101.623 112.824 101.623 116.216V131H94.3753V116.552C94.3753 114.856 94.0553 113.64 93.4153 112.904C92.8073 112.168 91.8473 111.8 90.5353 111.8C88.9353 111.8 87.6553 112.296 86.6953 113.288C85.7353 114.28 85.2553 115.608 85.2553 117.272V131H78.0073ZM119.685 131.528C115.461 131.528 112.165 130.392 109.797 128.12C107.429 125.848 106.245 122.76 106.245 118.856C106.245 116.328 106.741 114.12 107.733 112.232C108.757 110.344 110.165 108.872 111.957 107.816C113.781 106.728 115.909 106.184 118.341 106.184C120.741 106.184 122.741 106.696 124.341 107.72C125.973 108.744 127.189 110.184 127.989 112.04C128.821 113.864 129.237 115.992 129.237 118.424V120.104H112.197V116.504H123.957L123.141 117.176C123.141 115.16 122.725 113.64 121.893 112.616C121.093 111.56 119.925 111.032 118.389 111.032C116.693 111.032 115.381 111.656 114.453 112.904C113.557 114.152 113.109 115.944 113.109 118.28V119.048C113.109 121.416 113.685 123.176 114.837 124.328C116.021 125.48 117.717 126.056 119.925 126.056C121.237 126.056 122.469 125.896 123.621 125.576C124.805 125.224 125.925 124.68 126.981 123.944L128.997 128.744C127.781 129.64 126.373 130.328 124.773 130.808C123.205 131.288 121.509 131.528 119.685 131.528ZM147.382 131V113C147.382 111.976 147.35 110.936 147.286 109.88C147.222 108.792 147.126 107.72 146.998 106.664H153.958L154.486 111.176H153.91C154.71 109.576 155.846 108.344 157.318 107.48C158.79 106.616 160.502 106.184 162.454 106.184C165.302 106.184 167.43 107.016 168.838 108.68C170.278 110.312 170.998 112.856 170.998 116.312V131H163.75V116.648C163.75 114.888 163.43 113.64 162.79 112.904C162.15 112.168 161.19 111.8 159.91 111.8C158.31 111.8 157.03 112.312 156.07 113.336C155.11 114.328 154.63 115.672 154.63 117.368V131H147.382ZM188.34 131.528C185.748 131.528 183.492 131.016 181.572 129.992C179.684 128.936 178.212 127.464 177.156 125.576C176.132 123.688 175.62 121.432 175.62 118.808C175.62 116.216 176.132 113.976 177.156 112.088C178.212 110.2 179.684 108.744 181.572 107.72C183.492 106.696 185.748 106.184 188.34 106.184C190.932 106.184 193.188 106.696 195.108 107.72C197.028 108.744 198.5 110.2 199.524 112.088C200.58 113.976 201.108 116.216 201.108 118.808C201.108 121.432 200.58 123.688 199.524 125.576C198.5 127.464 197.028 128.936 195.108 129.992C193.188 131.016 190.932 131.528 188.34 131.528ZM188.34 126.056C190.004 126.056 191.316 125.464 192.276 124.28C193.268 123.096 193.764 121.272 193.764 118.808C193.764 116.344 193.268 114.536 192.276 113.384C191.316 112.232 190.004 111.656 188.34 111.656C186.676 111.656 185.348 112.232 184.356 113.384C183.396 114.536 182.916 116.344 182.916 118.808C182.916 121.272 183.396 123.096 184.356 124.28C185.348 125.464 186.676 126.056 188.34 126.056ZM205.741 131V113.096C205.741 112.04 205.709 110.968 205.645 109.88C205.613 108.792 205.533 107.72 205.405 106.664H212.365L213.181 113.768H212.077C212.397 112.04 212.909 110.616 213.613 109.496C214.349 108.376 215.245 107.544 216.301 107C217.389 106.456 218.621 106.184 219.997 106.184C220.605 106.184 221.085 106.216 221.437 106.28C221.789 106.312 222.141 106.392 222.493 106.52L222.445 112.904C221.773 112.616 221.197 112.44 220.717 112.376C220.269 112.28 219.693 112.232 218.989 112.232C217.645 112.232 216.525 112.488 215.629 113C214.765 113.512 214.109 114.264 213.661 115.256C213.245 116.248 213.037 117.448 213.037 118.856V131H205.741ZM238.305 131.528C235.137 131.528 232.753 130.744 231.153 129.176C229.553 127.576 228.753 125.192 228.753 122.024V112.088H224.145V106.664H228.753V100.712L236.001 98.936V106.664H242.241V112.088H236.001V121.64C236.001 123.176 236.321 124.232 236.961 124.808C237.601 125.384 238.417 125.672 239.409 125.672C240.017 125.672 240.513 125.64 240.897 125.576C241.313 125.48 241.745 125.352 242.193 125.192V130.808C241.585 131.064 240.945 131.24 240.273 131.336C239.601 131.464 238.945 131.528 238.305 131.528ZM245.96 131V95.672H253.208V111.224H252.488C253.256 109.592 254.392 108.344 255.896 107.48C257.4 106.616 259.128 106.184 261.08 106.184C263.928 106.184 266.056 107.016 267.464 108.68C268.872 110.312 269.576 112.824 269.576 116.216V131H262.328V116.552C262.328 114.856 262.008 113.64 261.368 112.904C260.76 112.168 259.8 111.8 258.488 111.8C256.888 111.8 255.608 112.296 254.648 113.288C253.688 114.28 253.208 115.608 253.208 117.272V131H245.96Z" fill="white"/>
<path fill-rule="evenodd" clip-rule="evenodd" d="M321 5.55558C332.787 5.55558 344.092 10.2381 352.427 18.5731C360.762 26.9079 365.444 38.2124 365.444 50C365.444 61.7875 360.762 73.0919 352.427 81.4268C344.092 89.7618 332.787 94.4443 321 94.4443V100C334.261 100 346.979 94.7322 356.355 85.3552C365.732 75.9785 371 63.2609 371 50C371 36.7391 365.732 24.0214 356.355 14.6446C346.979 5.26781 334.261 0 321 0V5.55558ZM313.361 16.7524C313.361 17.6634 313.54 18.6189 313.691 19.3121C313.862 20.0964 314.091 20.9532 314.342 21.8004C314.841 23.4912 315.485 25.3446 316.089 26.8371C318.996 34.0241 323.66 40.3177 329.622 45.1215L271 45.1215V54.8439L329.669 54.8439C323.684 59.6522 319.004 65.96 316.089 73.1659C315.485 74.658 314.841 76.5114 314.342 78.2022C314.091 79.0494 313.862 79.9064 313.691 80.6905C313.54 81.3839 313.361 82.3392 313.361 83.2502H323.083L323.083 83.311C323.082 83.326 323.082 83.336 323.083 83.336C323.083 83.336 323.085 83.3269 323.087 83.308C323.097 83.2447 323.123 83.0714 323.19 82.7605C323.296 82.2777 323.457 81.6609 323.665 80.9572C324.082 79.5467 324.624 77.9919 325.102 76.811C327.74 70.2897 332.199 64.7344 337.898 60.8347C343.596 56.936 350.282 54.8625 357.111 54.8625V54.8439V45.1402V45.1215H355.991C349.552 44.9074 343.284 42.8532 337.898 39.1681C332.199 35.2682 327.74 29.7131 325.102 23.1916C324.624 22.0107 324.082 20.4561 323.665 19.0454C323.457 18.3421 323.296 17.7251 323.19 17.2422C323.123 16.9312 323.097 16.7581 323.087 16.6947C323.085 16.6757 323.083 16.6666 323.083 16.6666C323.082 16.6667 323.082 16.6744 323.083 16.6894L323.083 16.7524H313.361Z" fill="#FECE00"/>
</svg>
    