<svg width="53" height="40" viewBox="0 0 53 40" fill="none" xmlns="http://www.w3.org/2000/svg">
<g clip-path="url(#clip0_598_15799)">
<g clip-path="url(#clip1_598_15799)">
<path fill-rule="evenodd" clip-rule="evenodd" d="M0 0H75.525V3.07817H0V0ZM0 6.15625H75.525V9.23442H0V6.15625ZM0 12.3047H75.525V15.3906H0V12.3047ZM0 18.4609H75.525V21.5391H0V18.4609ZM0 24.6172H75.525V27.6953H0V24.6172ZM0 30.7656H75.525V33.8438H0V30.7656ZM0 36.9218H75.525V40H0V36.9218Z" fill="#BD3D44"/>
<path fill-rule="evenodd" clip-rule="evenodd" d="M0 3.07812H75.525V6.15621H0V3.07812ZM0 9.23429H75.525V12.3046H0V9.23429ZM0 15.3828H75.525V18.4609H0V15.3828ZM0 21.539H75.525V24.6171H0V21.539ZM0 27.6953H75.525V30.7734H0V27.6953ZM0 33.8437H75.525V36.9219H0V33.8437Z" fill="white"/>
<path fill-rule="evenodd" clip-rule="evenodd" d="M0 0H30.2084V21.5391H0V0Z" fill="#192F5D"/>
<path fill-rule="evenodd" clip-rule="evenodd" d="M2.51607 0.921875L2.79556 1.77329H3.68066L2.96632 2.29679L3.23811 3.15613L2.51607 2.62488L1.80181 3.14829L2.07352 2.29679L1.35156 1.77329H2.25215L2.51607 0.921875ZM7.55472 0.921875L7.82642 1.77329H8.71923L7.99718 2.29679L8.26897 3.15613L7.55472 2.62488L6.83267 3.14829L7.10438 2.29679L6.39012 1.77329H7.27522L7.55472 0.921875ZM12.5856 0.921875L12.8651 1.77338H13.7424L13.0281 2.29688L13.2998 3.15621L12.5778 2.62496L11.8635 3.14838L12.1352 2.29688L11.4132 1.77338H12.3061L12.5856 0.921875ZM17.6242 0.921875L17.8958 1.77338H18.7887L18.0667 2.29688L18.3462 3.15621L17.6241 2.62496L16.9022 3.14838L17.1817 2.29688L16.4596 1.77338H17.3447L17.6242 0.921875ZM22.6551 0.921875L22.9346 1.77338H23.8196L23.1053 2.29688L23.377 3.15621L22.655 2.62496L21.9407 3.14838L22.2125 2.29688L21.4983 1.77338H22.3833L22.6551 0.921875ZM27.6936 0.921875L27.9653 1.77338H28.8582L28.1362 2.29688L28.4157 3.15621L27.6936 2.62496L26.9716 3.14838L27.2511 2.29688L26.5291 1.77338H27.4219L27.6936 0.921875ZM5.03929 3.07796L5.31099 3.92963H6.2038L5.48175 4.45296L5.74576 5.30463L5.04699 4.78113L4.32503 5.30454L4.58117 4.45304L3.88248 3.92954H4.76758L5.03929 3.07796ZM10.0701 3.07796L10.3496 3.92963H11.2347L10.5126 4.45296L10.7922 5.30463L10.0701 4.78113L9.3481 5.30454L9.62759 4.45304L8.90555 3.92954H9.79835L10.0701 3.07796ZM15.1088 3.07796L15.3804 3.92963H16.2733L15.5513 4.45296L15.823 5.30463L15.1087 4.78113L14.3867 5.30454L14.6585 4.45312L13.9442 3.92963H14.8293L15.1088 3.07796ZM20.1396 3.07796L20.4191 3.92963H21.3042L20.5821 4.45296L20.8616 5.30463L20.1396 4.78113L19.4253 5.30454L19.6971 4.45304L18.9751 3.92954H19.8756L20.1396 3.07796ZM25.1782 3.07796L25.4499 3.92963H26.3428L25.6208 4.45296L25.8925 5.30463L25.1782 4.78113L24.4562 5.30454L24.728 4.45304L24.0137 3.92954H24.8987L25.1782 3.07796ZM2.51607 5.22663L2.79556 6.09379H3.68066L2.96632 6.61721L3.23811 7.46879L2.51607 6.93754L1.80181 7.46879L2.07352 6.60938L1.35156 6.08604H2.25215L2.51607 5.22663ZM7.55472 5.22663L7.82642 6.08579H8.71923L7.99718 6.60921L8.26897 7.46088L7.55472 6.92954L6.83267 7.46079L7.10438 6.60146L6.39012 6.07804H7.27522L7.55472 5.22663ZM12.5856 5.22663L12.8651 6.08596H13.7424L13.0281 6.60938L13.2998 7.46104L12.5778 6.92971L11.8635 7.46096L12.1352 6.60162L11.4132 6.07821H12.3061L12.5856 5.22663ZM17.6242 5.22663L17.8958 6.08596H18.7887L18.0667 6.60938L18.3462 7.46104L17.6241 6.92971L16.9022 7.46096L17.1817 6.60162L16.4596 6.07821H17.3447L17.6242 5.22663ZM22.6551 5.22663L22.9346 6.08596H23.8196L23.1053 6.60929L23.377 7.46096L22.655 6.92963L21.9407 7.46088L22.2125 6.60154L21.4983 6.07813H22.3833L22.6551 5.22663ZM27.6936 5.22663L27.9653 6.08596H28.8582L28.1362 6.60938L28.4157 7.46104L27.6936 6.92971L26.9716 7.46096L27.2511 6.60162L26.5291 6.07821H27.4219L27.6936 5.22663ZM5.03929 7.38279L5.31099 8.23438H6.2038L5.48175 8.75771L5.75354 9.61713L5.03929 9.08588L4.31724 9.60929L4.58895 8.75779L3.87469 8.23438H4.75988L5.03929 7.38279ZM10.0701 7.38279L10.3496 8.23438H11.2347L10.5126 8.75771L10.7922 9.61713L10.0701 9.08588L9.3481 9.60929L9.62759 8.75779L8.90555 8.23438H9.79835L10.0701 7.38279ZM15.1088 7.38279L15.3804 8.23438H16.2733L15.5513 8.75771L15.823 9.61713L15.1087 9.08588L14.3867 9.60929L14.6585 8.75779L13.9442 8.23438H14.8293L15.1088 7.38279ZM20.1396 7.38279L20.4191 8.23438H21.3042L20.5899 8.75771L20.8616 9.61713L20.1396 9.08588L19.4253 9.60929L19.6971 8.75779L18.9751 8.23438H19.8756L20.1396 7.38279ZM25.1782 7.38279L25.4499 8.23438H26.3428L25.6208 8.75771L25.8925 9.61713L25.1782 9.08588L24.4562 9.60929L24.728 8.75779L24.0137 8.23438H24.8987L25.1782 7.38279ZM2.51607 9.53904L2.79556 10.3906H3.68066L2.96632 10.914L3.23811 11.7734L2.51607 11.2421L1.80181 11.7655L2.07352 10.914L1.35156 10.3906H2.25215L2.51607 9.53904ZM7.55472 9.53904L7.82642 10.3906H8.71923L7.99718 10.914L8.26897 11.7656L7.55472 11.2421L6.83267 11.7655L7.10438 10.914L6.39012 10.3906H7.27522L7.55472 9.53904ZM12.5856 9.53904L12.8651 10.3906H13.7424L13.0281 10.914L13.2998 11.7734L12.5778 11.2421L11.8635 11.7655L12.1352 10.914L11.4132 10.3906H12.3061L12.5856 9.53904ZM17.6242 9.53904L17.8958 10.3906H18.7887L18.0667 10.914L18.3462 11.7734L17.6241 11.2421L16.9022 11.7655L17.1817 10.914L16.4596 10.3906H17.3447L17.6242 9.53904ZM22.6551 9.53904L22.9346 10.3906H23.8196L23.1053 10.914L23.377 11.7734L22.655 11.2421L21.9407 11.7655L22.2125 10.914L21.4983 10.3906H22.3833L22.6551 9.53904ZM27.6936 9.53904L27.9653 10.3906H28.8582L28.1362 10.914L28.4157 11.7734L27.6936 11.2421L26.9716 11.7655L27.2511 10.914L26.5291 10.3906H27.4219L27.6936 9.53904ZM5.03929 11.6953L5.31099 12.5469H6.2038L5.48175 13.0702L5.75354 13.9219L5.03929 13.3906L4.31724 13.9219L4.58895 13.0625L3.87469 12.539H4.75988L5.03929 11.6953ZM10.0701 11.6953L10.3496 12.5469H11.2347L10.5126 13.0702L10.7922 13.9219L10.0701 13.3906L9.3481 13.9219L9.62759 13.0625L8.90555 12.539H9.79835L10.0701 11.6953ZM15.1088 11.6953L15.3804 12.5469H16.2733L15.5513 13.0702L15.823 13.9219L15.1087 13.3906L14.3867 13.9219L14.6585 13.0625L13.9442 12.539H14.8293L15.1088 11.6953ZM20.1396 11.6953L20.4191 12.5469H21.3042L20.5899 13.0702L20.8616 13.9219L20.1396 13.3906L19.4253 13.9219L19.6971 13.0625L18.9751 12.539H19.8756L20.1396 11.6953ZM25.1782 11.6953L25.4499 12.5469H26.3428L25.6208 13.0702L25.8925 13.9219L25.1782 13.3906L24.4562 13.9219L24.728 13.0625L24.0137 12.539H24.8987L25.1782 11.6953ZM2.51607 13.8437L2.79556 14.7031H3.68066L2.96632 15.2265L3.23811 16.0703L2.51607 15.5469L1.80181 16.0702L2.07352 15.2187L1.35156 14.6953H2.25215L2.51607 13.8437ZM7.55472 13.8437L7.82642 14.7031H8.71923L7.99718 15.2265L8.27676 16.0703L7.55463 15.5469L6.83267 16.0702L7.11217 15.2187L6.39012 14.6953H7.27522L7.55472 13.8437ZM12.5856 13.8437L12.8651 14.7031H13.7424L13.0281 15.2265L13.2998 16.0703L12.5778 15.5469L11.8635 16.0702L12.1352 15.2187L11.4132 14.6953H12.3061L12.5856 13.8437ZM17.6242 13.8437L17.8958 14.7031H18.7887L18.0667 15.2265L18.3462 16.0703L17.6241 15.5469L16.9022 16.0702L17.1817 15.2187L16.4596 14.6953H17.3447L17.6242 13.8437ZM22.6551 13.8437L22.9346 14.7031H23.8196L23.1053 15.2265L23.377 16.0703L22.655 15.5469L21.9407 16.0702L22.2125 15.2187L21.4983 14.6953H22.3833L22.6551 13.8437ZM27.6936 13.8437L27.9653 14.7031H28.8582L28.1362 15.2265L28.4157 16.0703L27.6936 15.5469L26.9716 16.0702L27.2511 15.2187L26.5291 14.6953H27.4219L27.6936 13.8437ZM5.03929 16L5.31099 16.8515H6.2038L5.48175 17.375L5.75354 18.2344L5.03929 17.7031L4.31724 18.2265L4.58895 17.375L3.87469 16.8515H4.75988L5.03929 16ZM10.0701 16L10.3496 16.8515H11.2347L10.5126 17.375L10.7922 18.2344L10.0701 17.7031L9.3481 18.2265L9.62759 17.375L8.90555 16.8515H9.79835L10.0701 16ZM15.1088 16L15.3804 16.8515H16.2733L15.5513 17.375L15.823 18.2344L15.1087 17.7031L14.3867 18.2265L14.6585 17.375L13.9442 16.8515H14.8293L15.1088 16ZM20.1396 16L20.4191 16.8515H21.3042L20.5899 17.375L20.8616 18.2344L20.1396 17.7031L19.4253 18.2265L19.6971 17.375L18.9751 16.8515H19.8756L20.1396 16ZM25.1782 16L25.4499 16.8515H26.3428L25.6208 17.375L25.8925 18.2344L25.1782 17.7031L24.4562 18.2265L24.728 17.375L24.0137 16.8515H24.8987L25.1782 16ZM2.51607 18.1562L2.79556 19.0078H3.68066L2.96632 19.5312L3.23811 20.3828L2.51607 19.8594L1.80181 20.3827L2.07352 19.5234L1.35156 19H2.25215L2.51607 18.1562ZM7.55472 18.1562L7.82642 19.0078H8.71923L7.99718 19.5312L8.27676 20.3828L7.55463 19.8594L6.83267 20.3827L7.11217 19.5234L6.39012 19H7.27522L7.55472 18.1562ZM12.5856 18.1562L12.8651 19.0078H13.7424L13.0436 19.5312L13.3153 20.3828L12.5933 19.8594L11.879 20.3827L12.1508 19.5234L11.4288 19H12.3216L12.5856 18.1562ZM17.6242 18.1562L17.8958 19.0078H18.7887L18.0667 19.5312L18.3462 20.3828L17.6241 19.8594L16.9022 20.3827L17.1817 19.5234L16.4596 19H17.3447L17.6242 18.1562ZM22.6551 18.1562L22.9346 19.0078H23.8196L23.1053 19.5312L23.377 20.3828L22.655 19.8594L21.9407 20.3827L22.2125 19.5234L21.4983 19H22.3833L22.6551 18.1562ZM27.6936 18.1562L27.9653 19.0078H28.8582L28.1362 19.5312L28.4157 20.3828L27.6936 19.8594L26.9716 20.3827L27.2511 19.5234L26.5291 19H27.4219L27.6936 18.1562Z" fill="white"/>
</g>
</g>
<defs>
<clipPath id="clip0_598_15799">
<rect width="53" height="40" fill="white"/>
</clipPath>
<clipPath id="clip1_598_15799">
<rect width="53" height="40" fill="white"/>
</clipPath>
</defs>
</svg>
